<mxfile host="Electron" modified="2023-11-27T17:30:49.975Z" agent="Mozilla/5.0 (Macintosh; Intel Mac OS X 10_15_7) AppleWebKit/537.36 (KHTML, like Gecko) draw.io/22.1.2 Chrome/114.0.5735.289 Electron/25.9.4 Safari/537.36" etag="Ecqba1xsYmVEx386e7Sm" version="22.1.2" type="device">
  <diagram name="Сторінка-1" id="Y0ECPL7DXXXuh7ZLFtuE">
    <mxGraphModel dx="601" dy="796" grid="1" gridSize="10" guides="1" tooltips="1" connect="1" arrows="1" fold="1" page="1" pageScale="1" pageWidth="827" pageHeight="1169" math="0" shadow="0">
      <root>
        <mxCell id="0" />
        <mxCell id="1" parent="0" />
        <mxCell id="VlGpOwupkeXUzUOBgkMP-4" value="" style="edgeStyle=orthogonalEdgeStyle;rounded=0;orthogonalLoop=1;jettySize=auto;html=1;" edge="1" parent="1" source="VlGpOwupkeXUzUOBgkMP-1" target="VlGpOwupkeXUzUOBgkMP-3">
          <mxGeometry relative="1" as="geometry" />
        </mxCell>
        <mxCell id="VlGpOwupkeXUzUOBgkMP-1" value="Start" style="ellipse;whiteSpace=wrap;html=1;" vertex="1" parent="1">
          <mxGeometry x="70" y="70" width="90" height="60" as="geometry" />
        </mxCell>
        <mxCell id="VlGpOwupkeXUzUOBgkMP-7" value="" style="edgeStyle=orthogonalEdgeStyle;rounded=0;orthogonalLoop=1;jettySize=auto;html=1;" edge="1" parent="1" source="VlGpOwupkeXUzUOBgkMP-3" target="VlGpOwupkeXUzUOBgkMP-6">
          <mxGeometry relative="1" as="geometry" />
        </mxCell>
        <mxCell id="VlGpOwupkeXUzUOBgkMP-3" value="n,m" style="shape=parallelogram;perimeter=parallelogramPerimeter;whiteSpace=wrap;html=1;fixedSize=1;" vertex="1" parent="1">
          <mxGeometry x="55" y="150" width="120" height="60" as="geometry" />
        </mxCell>
        <mxCell id="VlGpOwupkeXUzUOBgkMP-9" value="" style="edgeStyle=orthogonalEdgeStyle;rounded=0;orthogonalLoop=1;jettySize=auto;html=1;" edge="1" parent="1" source="VlGpOwupkeXUzUOBgkMP-6" target="VlGpOwupkeXUzUOBgkMP-8">
          <mxGeometry relative="1" as="geometry" />
        </mxCell>
        <mxCell id="VlGpOwupkeXUzUOBgkMP-6" value="(n++)-(m)" style="shape=parallelogram;perimeter=parallelogramPerimeter;whiteSpace=wrap;html=1;fixedSize=1;" vertex="1" parent="1">
          <mxGeometry x="50" y="230" width="120" height="60" as="geometry" />
        </mxCell>
        <mxCell id="VlGpOwupkeXUzUOBgkMP-11" value="" style="edgeStyle=orthogonalEdgeStyle;rounded=0;orthogonalLoop=1;jettySize=auto;html=1;" edge="1" parent="1" source="VlGpOwupkeXUzUOBgkMP-8" target="VlGpOwupkeXUzUOBgkMP-10">
          <mxGeometry relative="1" as="geometry" />
        </mxCell>
        <mxCell id="VlGpOwupkeXUzUOBgkMP-8" value="(bool) (m--)&amp;gt;(n)" style="shape=parallelogram;perimeter=parallelogramPerimeter;whiteSpace=wrap;html=1;fixedSize=1;" vertex="1" parent="1">
          <mxGeometry x="50" y="310" width="120" height="60" as="geometry" />
        </mxCell>
        <mxCell id="VlGpOwupkeXUzUOBgkMP-13" value="" style="edgeStyle=orthogonalEdgeStyle;rounded=0;orthogonalLoop=1;jettySize=auto;html=1;" edge="1" parent="1" source="VlGpOwupkeXUzUOBgkMP-10" target="VlGpOwupkeXUzUOBgkMP-12">
          <mxGeometry relative="1" as="geometry" />
        </mxCell>
        <mxCell id="VlGpOwupkeXUzUOBgkMP-10" value="(bool) (n--)&amp;gt;m" style="shape=parallelogram;perimeter=parallelogramPerimeter;whiteSpace=wrap;html=1;fixedSize=1;" vertex="1" parent="1">
          <mxGeometry x="50" y="390" width="120" height="60" as="geometry" />
        </mxCell>
        <mxCell id="VlGpOwupkeXUzUOBgkMP-12" value="End" style="ellipse;whiteSpace=wrap;html=1;" vertex="1" parent="1">
          <mxGeometry x="50" y="470" width="120" height="80" as="geometry" />
        </mxCell>
      </root>
    </mxGraphModel>
  </diagram>
</mxfile>
